<?xml version="1.0" standalone="no"?><!-- Generator: Gravit.io --><svg xmlns="http://www.w3.org/2000/svg" xmlns:xlink="http://www.w3.org/1999/xlink" style="isolation:isolate" viewBox="0 0 200 200" width="200" height="200"><defs><clipPath id="_clipPath_K5s20fweeKRKc6ZIQ0kXTcvP3DpyHbM7"><rect width="200" height="200"/></clipPath></defs><g clip-path="url(#_clipPath_K5s20fweeKRKc6ZIQ0kXTcvP3DpyHbM7)"><rect x="18" y="75" width="164" height="125" transform="matrix(1,0,0,1,0,0)" fill="rgb(113,105,219)"/><path d="M 85.5 112 L 114.5 112 C 133.817 112 149.5 127.683 149.5 147 L 149.5 147 C 149.5 166.317 133.817 182 114.5 182 L 85.5 182 C 66.183 182 50.5 166.317 50.5 147 L 50.5 147 C 50.5 127.683 66.183 112 85.5 112 Z" style="stroke:none;fill:#A7D3FE;stroke-miterlimit:10;"/><path d=" M 111 143.5 C 111 138.533 115.033 134.5 120 134.5 C 124.967 134.5 129 138.533 129 143.5 C 129 148.467 124.967 152.5 120 152.5 C 115.033 152.5 111 148.467 111 143.5 Z " fill="rgb(113,105,219)"/><path d=" M 113 143.5 C 113 139.637 116.137 136.5 120 136.5 C 123.863 136.5 127 139.637 127 143.5 C 127 147.363 123.863 150.5 120 150.5 C 116.137 150.5 113 147.363 113 143.5 Z " fill="rgb(255,255,255)"/><path d=" M 71 143.5 C 71 138.533 75.033 134.5 80 134.5 C 84.967 134.5 89 138.533 89 143.5 C 89 148.467 84.967 152.5 80 152.5 C 75.033 152.5 71 148.467 71 143.5 Z " fill="rgb(113,105,219)"/><path d=" M 73 143.5 C 73 139.637 76.137 136.5 80 136.5 C 83.863 136.5 87 139.637 87 143.5 C 87 147.363 83.863 150.5 80 150.5 C 76.137 150.5 73 147.363 73 143.5 Z " fill="rgb(255,255,255)"/><path d=" M 106 161.813 C 104.867 164.394 102.284 166.188 99.286 166.188 C 96.287 166.188 93.704 164.394 92.571 161.813" fill="none" vector-effect="non-scaling-stroke" stroke-width="3" stroke="rgb(113,105,219)" stroke-linejoin="miter" stroke-linecap="round" stroke-miterlimit="3"/><path d="M 32 14 L 32 14 C 39.727 14 46 20.273 46 28 L 46 86 C 46 93.727 39.727 100 32 100 L 32 100 C 24.273 100 18 93.727 18 86 L 18 28 C 18 20.273 24.273 14 32 14 Z" style="stroke:none;fill:#7169DB;stroke-miterlimit:10;"/><path d="M 168 14 L 168 14 C 175.727 14 182 20.273 182 28 L 182 86 C 182 93.727 175.727 100 168 100 L 168 100 C 160.273 100 154 93.727 154 86 L 154 28 C 154 20.273 160.273 14 168 14 Z" style="stroke:none;fill:#7169DB;stroke-miterlimit:10;"/></g></svg>