<svg xmlns="http://www.w3.org/2000/svg" xmlns:xlink="http://www.w3.org/1999/xlink" version="1.1" width="1000" height="1000" viewBox="0 0 1000 1000" xml:space="preserve">
<desc>Created with Fabric.js 3.5.0</desc>
<defs>
</defs>
<rect x="0" y="0" width="100%" height="100%" fill="rgba(255,255,255,0)"/>
<g transform="matrix(1.3403 0 0 1.3403 499.9829 410.303)" id="605000">
<g style="">
		<g transform="matrix(4.5455 0 0 3.6634 -0.4105 77.1653)" id="591650" clip-path="url(#CLIPPATH_23)">
<clipPath id="CLIPPATH_23">
	<rect transform="matrix(1 0 0 1 0 -37.5)" id="_clipPath_K5s20fweeKRKc6ZIQ0kXTcvP3DpyHbM7" x="-100" y="-100" rx="0" ry="0" width="200" height="200"/>
</clipPath>
<rect style="stroke: none; stroke-width: 0; stroke-dasharray: none; stroke-linecap: butt; stroke-dashoffset: 0; stroke-linejoin: miter; stroke-miterlimit: 4; is-custom-font: none; font-file-url: none; fill: rgb(154,130,191); fill-rule: nonzero; opacity: 1;" x="-82" y="-62.5" rx="0" ry="0" width="164" height="125"/>
</g>
		<g transform="matrix(4.5455 0 0 4.5455 1.8622 66.6032)" id="167193" clip-path="url(#CLIPPATH_24)">
<clipPath id="CLIPPATH_24">
	<rect transform="matrix(1 0 0 1 0 -47)" id="_clipPath_K5s20fweeKRKc6ZIQ0kXTcvP3DpyHbM7" x="-100" y="-100" rx="0" ry="0" width="200" height="200"/>
</clipPath>
<path style="stroke: none; stroke-width: 1; stroke-dasharray: none; stroke-linecap: butt; stroke-dashoffset: 0; stroke-linejoin: miter; stroke-miterlimit: 10; is-custom-font: none; font-file-url: none; fill: rgb(250,225,208); fill-rule: nonzero; opacity: 1;" transform=" translate(-100, -147)" d="M 85.5 112 L 114.5 112 C 133.817 112 149.5 127.683 149.5 147 L 149.5 147 C 149.5 166.317 133.817 182 114.5 182 L 85.5 182 C 66.183 182 50.5 166.317 50.5 147 L 50.5 147 C 50.5 127.683 66.183 112 85.5 112 Z" stroke-linecap="round"/>
</g>
		<g transform="matrix(4.5455 0 0 4.5455 -91.3205 48.4213)" id="480846" clip-path="url(#CLIPPATH_25)">
<clipPath id="CLIPPATH_25">
	<rect transform="matrix(1 0 0 1 20 -43.5)" id="_clipPath_K5s20fweeKRKc6ZIQ0kXTcvP3DpyHbM7" x="-100" y="-100" rx="0" ry="0" width="200" height="200"/>
</clipPath>
<path style="stroke: none; stroke-width: 0; stroke-dasharray: none; stroke-linecap: butt; stroke-dashoffset: 0; stroke-linejoin: miter; stroke-miterlimit: 4; is-custom-font: none; font-file-url: none; fill: rgb(154,130,191); fill-rule: nonzero; opacity: 1;" transform=" translate(-80, -143.5)" d="M 71 143.5 C 71 138.533 75.033 134.5 80 134.5 C 84.967 134.5 89 138.533 89 143.5 C 89 148.467 84.967 152.5 80 152.5 C 75.033 152.5 71 148.467 71 143.5 Z" stroke-linecap="round"/>
</g>
		<g transform="matrix(8.8059 0 0 4.5455 1.8619 138.4367)" id="6033" clip-path="url(#CLIPPATH_26)">
<clipPath id="CLIPPATH_26">
	<rect transform="matrix(1 0 0 1 0.7145 -64.0005)" id="_clipPath_K5s20fweeKRKc6ZIQ0kXTcvP3DpyHbM7" x="-100" y="-100" rx="0" ry="0" width="200" height="200"/>
</clipPath>
<path style="stroke: rgb(154,130,191); stroke-width: 3; stroke-dasharray: none; stroke-linecap: round; stroke-dashoffset: 0; stroke-linejoin: miter; stroke-miterlimit: 3; is-custom-font: none; font-file-url: none; fill: none; fill-rule: nonzero; opacity: 1;" vector-effect="non-scaling-stroke" transform=" translate(-99.2855, -164.0005)" d="M 106 161.813 C 104.867 164.394 102.284 166.188 99.286 166.188 C 96.287 166.188 93.704 164.394 92.571 161.813" stroke-linecap="round"/>
</g>
		<g transform="matrix(4.6238 0 0 4.5455 -308.3663 -108.3985)" id="130804" clip-path="url(#CLIPPATH_27)">
<clipPath id="CLIPPATH_27">
	<rect transform="matrix(1 0 0 1 68 43)" id="_clipPath_K5s20fweeKRKc6ZIQ0kXTcvP3DpyHbM7" x="-100" y="-100" rx="0" ry="0" width="200" height="200"/>
</clipPath>
<path style="stroke: none; stroke-width: 1; stroke-dasharray: none; stroke-linecap: butt; stroke-dashoffset: 0; stroke-linejoin: miter; stroke-miterlimit: 10; is-custom-font: none; font-file-url: none; fill: rgb(154,130,191); fill-rule: nonzero; opacity: 1;" transform=" translate(-32, -57)" d="M 32 14 L 32 14 C 39.727 14 46 20.273 46 28 L 46 86 C 46 93.727 39.727 100 32 100 L 32 100 C 24.273 100 18 93.727 18 86 L 18 28 C 18 20.273 24.273 14 32 14 Z" stroke-linecap="round"/>
</g>
		<g transform="matrix(4.5455 0 0 4.5455 91.9448 48.4213)" id="491167" clip-path="url(#CLIPPATH_28)">
<clipPath id="CLIPPATH_28">
	<rect transform="matrix(1 0 0 1 20 -43.5)" id="_clipPath_K5s20fweeKRKc6ZIQ0kXTcvP3DpyHbM7" x="-100" y="-100" rx="0" ry="0" width="200" height="200"/>
</clipPath>
<path style="stroke: none; stroke-width: 0; stroke-dasharray: none; stroke-linecap: butt; stroke-dashoffset: 0; stroke-linejoin: miter; stroke-miterlimit: 4; is-custom-font: none; font-file-url: none; fill: rgb(154,130,191); fill-rule: nonzero; opacity: 1;" transform=" translate(-80, -143.5)" d="M 71 143.5 C 71 138.533 75.033 134.5 80 134.5 C 84.967 134.5 89 138.533 89 143.5 C 89 148.467 84.967 152.5 80 152.5 C 75.033 152.5 71 148.467 71 143.5 Z" stroke-linecap="round"/>
</g>
		<g transform="matrix(-4.6238 0 0 4.5455 308.3663 -108.3985)" id="126989" clip-path="url(#CLIPPATH_29)">
<clipPath id="CLIPPATH_29">
	<rect transform="matrix(1 0 0 1 68 43)" id="_clipPath_K5s20fweeKRKc6ZIQ0kXTcvP3DpyHbM7" x="-100" y="-100" rx="0" ry="0" width="200" height="200"/>
</clipPath>
<path style="stroke: none; stroke-width: 1; stroke-dasharray: none; stroke-linecap: butt; stroke-dashoffset: 0; stroke-linejoin: miter; stroke-miterlimit: 10; is-custom-font: none; font-file-url: none; fill: rgb(154,130,191); fill-rule: nonzero; opacity: 1;" transform=" translate(-32, -57)" d="M 32 14 L 32 14 C 39.727 14 46 20.273 46 28 L 46 86 C 46 93.727 39.727 100 32 100 L 32 100 C 24.273 100 18 93.727 18 86 L 18 28 C 18 20.273 24.273 14 32 14 Z" stroke-linecap="round"/>
</g>
		<g transform="matrix(1.8322 0 0 1.8322 -72.8293 64.1913)" id="731324" clip-path="url(#CLIPPATH_30)">
<clipPath id="CLIPPATH_30">
	<rect transform="matrix(1 0 0 1 20 -43.5)" id="_clipPath_K5s20fweeKRKc6ZIQ0kXTcvP3DpyHbM7" x="-100" y="-100" rx="0" ry="0" width="200" height="200"/>
</clipPath>
<path style="stroke: none; stroke-width: 0; stroke-dasharray: none; stroke-linecap: butt; stroke-dashoffset: 0; stroke-linejoin: miter; stroke-miterlimit: 4; is-custom-font: none; font-file-url: none; fill: rgb(255,255,255); fill-rule: nonzero; opacity: 1;" transform=" translate(-80, -143.5)" d="M 73 143.5 C 73 139.637 76.137 136.5 80 136.5 C 83.863 136.5 87 139.637 87 143.5 C 87 147.363 83.863 150.5 80 150.5 C 76.137 150.5 73 147.363 73 143.5 Z" stroke-linecap="round"/>
</g>
		<g transform="matrix(2.6804 0 0 2.6804 -104.3762 35.3655)" id="482980" clip-path="url(#CLIPPATH_31)">
<clipPath id="CLIPPATH_31">
	<rect transform="matrix(1 0 0 1 20 -43.5)" id="_clipPath_K5s20fweeKRKc6ZIQ0kXTcvP3DpyHbM7" x="-100" y="-100" rx="0" ry="0" width="200" height="200"/>
</clipPath>
<path style="stroke: none; stroke-width: 0; stroke-dasharray: none; stroke-linecap: butt; stroke-dashoffset: 0; stroke-linejoin: miter; stroke-miterlimit: 4; is-custom-font: none; font-file-url: none; fill: rgb(255,255,255); fill-rule: nonzero; opacity: 1;" transform=" translate(-80, -143.5)" d="M 73 143.5 C 73 139.637 76.137 136.5 80 136.5 C 83.863 136.5 87 139.637 87 143.5 C 87 147.363 83.863 150.5 80 150.5 C 76.137 150.5 73 147.363 73 143.5 Z" stroke-linecap="round"/>
</g>
		<g transform="matrix(1.8322 0 0 1.8322 110.4361 64.1913)" id="247916" clip-path="url(#CLIPPATH_32)">
<clipPath id="CLIPPATH_32">
	<rect transform="matrix(1 0 0 1 20 -43.5)" id="_clipPath_K5s20fweeKRKc6ZIQ0kXTcvP3DpyHbM7" x="-100" y="-100" rx="0" ry="0" width="200" height="200"/>
</clipPath>
<path style="stroke: none; stroke-width: 0; stroke-dasharray: none; stroke-linecap: butt; stroke-dashoffset: 0; stroke-linejoin: miter; stroke-miterlimit: 4; is-custom-font: none; font-file-url: none; fill: rgb(255,255,255); fill-rule: nonzero; opacity: 1;" transform=" translate(-80, -143.5)" d="M 73 143.5 C 73 139.637 76.137 136.5 80 136.5 C 83.863 136.5 87 139.637 87 143.5 C 87 147.363 83.863 150.5 80 150.5 C 76.137 150.5 73 147.363 73 143.5 Z" stroke-linecap="round"/>
</g>
		<g transform="matrix(2.6804 0 0 2.6804 78.8891 35.3655)" id="965432" clip-path="url(#CLIPPATH_33)">
<clipPath id="CLIPPATH_33">
	<rect transform="matrix(1 0 0 1 20 -43.5)" id="_clipPath_K5s20fweeKRKc6ZIQ0kXTcvP3DpyHbM7" x="-100" y="-100" rx="0" ry="0" width="200" height="200"/>
</clipPath>
<path style="stroke: none; stroke-width: 0; stroke-dasharray: none; stroke-linecap: butt; stroke-dashoffset: 0; stroke-linejoin: miter; stroke-miterlimit: 4; is-custom-font: none; font-file-url: none; fill: rgb(255,255,255); fill-rule: nonzero; opacity: 1;" transform=" translate(-80, -143.5)" d="M 73 143.5 C 73 139.637 76.137 136.5 80 136.5 C 83.863 136.5 87 139.637 87 143.5 C 87 147.363 83.863 150.5 80 150.5 C 76.137 150.5 73 147.363 73 143.5 Z" stroke-linecap="round"/>
</g>
</g>
</g>
</svg>