<svg xmlns="http://www.w3.org/2000/svg" xmlns:xlink="http://www.w3.org/1999/xlink" version="1.1" width="1000" height="1000" viewBox="0 0 1000 1000" xml:space="preserve">
<desc>Created with Fabric.js 3.5.0</desc>
<defs>
</defs>
<rect x="0" y="0" width="100%" height="100%" fill="rgba(255,255,255,0)"/>
<g transform="matrix(7.674 0 0 7.674 498.81 498.81)" id="138565">
<path style="stroke: none; stroke-width: 0; stroke-dasharray: none; stroke-linecap: butt; stroke-dashoffset: 0; stroke-linejoin: miter; stroke-miterlimit: 4; is-custom-font: none; font-file-url: none; fill: rgb(36,37,41); fill-rule: nonzero; opacity: 1;" vector-effect="non-scaling-stroke" transform=" translate(-67.5, -67.5)" d="M 132.5 67.5 C 132.5 103.399 103.399 132.5 67.5 132.5 C 31.6015 132.5 2.5 103.399 2.5 67.5 C 2.5 31.6015 31.6015 2.5 67.5 2.5 C 103.399 2.5 132.5 31.6015 132.5 67.5 Z" stroke-linecap="round"/>
</g>
<g transform="matrix(1 0 0 1 500 500)" style="" id="485163">
		
<path xml:space="preserve" font-family="Alegreya Sans" font-size="400" font-style="normal" font-weight="bold" style="stroke: none; stroke-width: 0; stroke-dasharray: none; stroke-linecap: butt; stroke-dashoffset: 0; stroke-linejoin: miter; stroke-miterlimit: 4; is-custom-font: none; font-file-url: none; fill: rgb(250,225,208); fill-rule: nonzero; opacity: 1; white-space: pre;" d="M-166.80-131.94L-169.60 44.06L-168 125.66L-222 125.66L-219.60 48.86L-220 18.86L-278 18.46L-330.40 19.26L-330.80 44.06L-328.80 125.66L-382.80 125.66L-380 48.86L-382.80-131.94L-328-131.94L-329.60-25.54L-274.40-24.74L-220.40-25.54L-222-131.94L-166.80-131.94ZM-6.40-135.14Q31.20-135.14 61.20-119.54L61.20-119.54L51.60-74.34L47.20-72.34Q35.20-80.74 20.80-85.54Q6.40-90.34-8.80-90.34L-8.80-90.34Q-72.40-90.34-72.40-6.74L-72.40-6.74Q-72.40 38.46-55.80 61.06Q-39.20 83.66-7.20 83.66L-7.20 83.66Q7.60 83.66 23.40 79.06Q39.20 74.46 52.00 66.46L52.00 66.46L56.80 69.26L52.40 115.26Q22.00 129.26-11.60 129.26L-11.60 129.26Q-69.20 129.26-99.40 95.66Q-129.60 62.06-129.60-0.74L-129.60-0.74Q-129.60-64.74-97.40-99.94Q-65.20-135.14-6.40-135.14L-6.40-135.14ZM152.40-131.94L149.20 44.06L151.60 125.66L97.20 125.66L100.00 48.86L97.20-131.94L152.40-131.94Z"/><path xml:space="preserve" font-family="Alegreya Sans" font-size="400" font-style="normal" font-weight="bold" style="stroke: none; stroke-width: 0; stroke-dasharray: none; stroke-linecap: butt; stroke-dashoffset: 0; stroke-linejoin: miter; stroke-miterlimit: 4; is-custom-font: none; font-file-url: none; fill: rgb(175,193,112); fill-rule: nonzero; opacity: 1; white-space: pre;" d="M351.20-7.94Q377.60-1.54 390.20 13.46Q402.80 28.46 402.80 52.86L402.80 52.86Q402.80 127.66 285.60 127.66L285.60 127.66Q251.20 127.66 215.20 125.66L215.20 125.66L218 48.86L215.20-131.94L306.80-132.34Q346.40-132.34 368.40-115.74Q390.40-99.14 390.40-67.94L390.40-67.94Q390.40-47.14 380.20-31.54Q370-15.94 351.20-7.94L351.20-7.94ZM334.80-60.74Q334.80-78.34 324.40-85.74Q314-93.14 288-93.14L288-93.14L268.40-93.14L267.20-23.14L304.80-21.94Q320-25.94 327.40-35.14Q334.80-44.34 334.80-60.74L334.80-60.74ZM294.80 88.86Q320 88.86 333.80 78.86Q347.60 68.86 347.60 50.06L347.60 50.06Q347.60 21.66 310.80 14.86L310.80 14.86L266.40 15.66L266 44.06L267.20 87.26Q281.20 88.86 294.80 88.86L294.80 88.86Z"/></g>
</svg>